# xmcd
#
# Track frame offsets: 
#        150
#        17554
#        34605
#        52499
#        69033
#        87920
#        104282
#        118725
#        135686
#        151033
#        169234
#        186573
#        202339
#        225015
#        243973
#        261324
#        280966
#        294721
#        312715
#
# Disc length: 4410 seconds
#
# Revision: 0
# Processed by: cddbd v1.5.2PL0 Copyright (c) Steve Scherf et al.
# Submitted via: ExactAudioCopy v0.95b4
#
DISCID=18113813
DTITLE=Various Artist - PrimeCuts HP200802 1-11-08
DYEAR=2008
DGENRE=Acid
TTITLE0=Taylor Dayne - Beautiful
TTITLE1=Good Charlotte - Victims Of Love
TTITLE2=Jaheim - Never
TTITLE3=Plies f Tank - You
TTITLE4=Ciara f J-Hood - Ahh
TTITLE5=Tiffany Evans f Bow Wow - I'm Grown
TTITLE6=Bow Wow and Omarion - Hey Baby (Jump Off)
TTITLE7=Yung Ralph - I Work Hard 
TTITLE8=Jason Michael Carrol - I Can Sleep When I'm Dead
TTITLE9=Sara Evans - Some Things Never Change
TTITLE10=Clay Walker - She Like It In The Morning
TTITLE11=Keith Anderson - I Still Miss You
TTITLE12=Dragonforce - Through The Fire And Flames (Edit)
TTITLE13=Theory of A Deadman - So Happy (Radio Edit)
TTITLE14=Ashes Divide - The Stone
TTITLE15=Alter Bridge - Watch Over You
TTITLE16=Britney Spears - Piece Of Me (Bimbo Jones RadioEdit)
TTITLE17=Connersvine - Live You You (Radio Mix 2)
TTITLE18=Building 429 - Singing Over Me
EXTD=
EXTT0=
EXTT1=
EXTT2=
EXTT3=
EXTT4=
EXTT5=
EXTT6=
EXTT7=
EXTT8=
EXTT9=
EXTT10=
EXTT11=
EXTT12=
EXTT13=
EXTT14=
EXTT15=
EXTT16=
EXTT17=
EXTT18=
PLAYORDER=
